<svg width="157" height="30" viewBox="0 0 157 30" fill="none" xmlns="http://www.w3.org/2000/svg">
	<path d="M7.17237 0.0666744C4.68072 0.626284 2.91129 2.6842 2.69463 5.24758C2.40574 8.98433 6.35987 10.9339 11.9209 9.76057C12.7876 9.58005 13.5459 9.47174 13.6001 9.52589C13.6543 9.58005 11.0001 12.5767 7.67792 16.1871C1.17797 23.2815 0.834919 23.6786 0.275202 24.9242C-0.374793 26.4045 0.148814 27.975 1.6113 28.9137C2.31546 29.365 2.53213 29.4191 4.01267 29.4191C5.40294 29.4011 5.76405 29.3289 6.54043 28.9317C7.04598 28.679 7.62375 28.2638 7.84042 28.0291C8.03903 27.8125 9.42929 25.7004 10.9098 23.3717C14.8279 17.198 17.1751 13.75 17.807 13.2085C18.4931 12.6308 19.3056 12.4684 20.6959 12.5947C22.0139 12.703 22.7903 13.1002 23.1695 13.8584C23.4222 14.3458 23.4764 14.9234 23.4403 17.2882C23.3861 21.9456 23.332 22.433 22.8625 22.9385C22.5917 23.2273 22.2486 23.3717 21.8695 23.3717C19.3417 23.3717 18.1139 24.509 17.8973 27.0724C17.7348 29.0761 18.3667 29.6358 21.1653 29.9065C24.9389 30.2676 27.5569 29.5816 28.7847 27.8667C29.8861 26.3142 29.9944 25.5019 29.9944 18.3172C30.0125 11.9629 30.0125 11.9087 29.5791 10.97C28.7125 9.02044 26.0944 7.34161 23.1695 6.83615C22.357 6.69174 19.6848 6.51122 17.1931 6.42096C13.7626 6.31265 12.5168 6.20433 12.0112 5.98771C11.6321 5.82524 11.3251 5.62667 11.3251 5.55446C11.3251 5.48226 11.5779 5.04901 11.8668 4.61576C12.9501 3.00914 12.2459 1.05953 10.3321 0.391607C9.35707 0.0486202 7.94875 -0.0957921 7.17237 0.0666744Z" fill="#DC1853" />
	<path d="M62.8 9H58.96L54.4 16.464L49.84 9H46V25.8H49.84V16.032L54.184 23.16H54.616L58.96 16.032V25.8H62.8V9Z" fill="white" />
	<path d="M68.7835 21.24H77.3035C77.3995 20.784 77.4475 20.304 77.4475 19.8C77.4475 16.176 74.8555 13.464 71.3515 13.464C67.5595 13.464 64.9675 16.224 64.9675 19.8C64.9675 23.376 67.5115 26.136 71.6155 26.136C73.8955 26.136 75.6715 25.296 76.8475 23.664L73.9675 22.008C73.4875 22.536 72.6475 22.92 71.6635 22.92C70.3435 22.92 69.2395 22.488 68.7835 21.24ZM68.7115 18.552C69.0475 17.328 69.9595 16.656 71.3275 16.656C72.4075 16.656 73.4875 17.16 73.8715 18.552H68.7115Z" fill="white" />
	<path d="M82.5882 21.24H91.1082C91.2042 20.784 91.2522 20.304 91.2522 19.8C91.2522 16.176 88.6602 13.464 85.1562 13.464C81.3642 13.464 78.7722 16.224 78.7722 19.8C78.7722 23.376 81.3162 26.136 85.4202 26.136C87.7002 26.136 89.4762 25.296 90.6522 23.664L87.7722 22.008C87.2922 22.536 86.4522 22.92 85.4682 22.92C84.1482 22.92 83.0442 22.488 82.5882 21.24ZM82.5162 18.552C82.8522 17.328 83.7642 16.656 85.1322 16.656C86.2122 16.656 87.2922 17.16 87.6762 18.552H82.5162Z" fill="white" />
	<path d="M96.2333 17.304C96.2333 16.872 96.6173 16.632 97.2413 16.632C98.0333 16.632 98.5133 17.064 98.8493 17.688L101.921 16.032C100.913 14.328 99.1853 13.464 97.2413 13.464C94.7453 13.464 92.5373 14.784 92.5373 17.4C92.5373 21.552 98.4413 20.856 98.4413 22.176C98.4413 22.656 98.0093 22.92 97.1453 22.92C96.0893 22.92 95.4173 22.416 95.1053 21.504L91.9853 23.28C92.9213 25.224 94.7453 26.136 97.1453 26.136C99.7373 26.136 102.137 24.96 102.137 22.2C102.137 17.76 96.2333 18.672 96.2333 17.304Z" fill="white" />
	<path d="M110.967 13.464C109.383 13.464 108.183 14.04 107.535 14.928V9H103.935V25.8H107.535V19.248C107.535 17.544 108.447 16.776 109.767 16.776C110.919 16.776 111.855 17.472 111.855 18.96V25.8H115.455V18.432C115.455 15.192 113.391 13.464 110.967 13.464Z" fill="white" />
	<path d="M129.447 25.8L124.959 19.8L129.327 13.8H125.127L121.527 19.056V9H117.927V25.8H121.527V20.496L125.367 25.8H129.447Z" fill="white" />
	<path d="M138.756 13.8V14.928C137.964 14.016 136.788 13.464 135.18 13.464C132.036 13.464 129.444 16.224 129.444 19.8C129.444 23.376 132.036 26.136 135.18 26.136C136.788 26.136 137.964 25.584 138.756 24.672V25.8H142.356V13.8H138.756ZM135.9 22.728C134.244 22.728 133.044 21.6 133.044 19.8C133.044 18 134.244 16.872 135.9 16.872C137.556 16.872 138.756 18 138.756 19.8C138.756 21.6 137.556 22.728 135.9 22.728Z" fill="white" />
	<path d="M152.029 13.464C150.445 13.464 149.245 14.04 148.597 14.928V13.8H144.997V25.8H148.597V19.248C148.597 17.544 149.509 16.776 150.829 16.776C151.981 16.776 152.917 17.472 152.917 18.96V25.8H156.517V18.432C156.517 15.192 154.453 13.464 152.029 13.464Z" fill="white" />
</svg>
