<svg width="901" height="38" viewBox="0 0 901 38" fill="none" xmlns="http://www.w3.org/2000/svg">
	<path d="M0 3C0 1.34315 1.34464 0 3.00333 0H897.997C899.655 0 901 1.34315 901 3V37H0V3Z" fill="#131920" />
	<path d="M99.5 8H80.5C78.567 8 77 9.567 77 11.5V27.5C77 29.433 78.567 31 80.5 31H99.5C101.433 31 103 29.433 103 27.5V11.5C103 9.567 101.433 8 99.5 8Z" fill="#1F2933" />
	<path d="M93 14L87 19.5L93 25" stroke="#616E7C" stroke-width="1.5" stroke-linecap="round" stroke-linejoin="round" />
	<path d="M126.5 8H107.5C105.567 8 104 9.567 104 11.5V27.5C104 29.433 105.567 31 107.5 31H126.5C128.433 31 130 29.433 130 27.5V11.5C130 9.567 128.433 8 126.5 8Z" fill="#1F2933" />
	<path d="M115 24L121 18.692L115.405 13" stroke="white" stroke-width="1.5" stroke-linecap="round" stroke-linejoin="round" />
	<path d="M24 19.5C24 22.5386 21.5364 25 18.5 25C15.4635 25 13 22.5386 13 19.5C13 16.4614 15.4635 14 18.5 14C21.5364 14 24 16.4614 24 19.5Z" fill="#FF6059" stroke="#E14640" />
	<path d="M44 19.5C44 22.5386 41.5365 25 38.5 25C35.4635 25 33 22.5386 33 19.5C33 16.4614 35.4635 14 38.5 14C41.5365 14 44 16.4614 44 19.5Z" fill="#FFBD2E" stroke="#DFA023" />
	<path d="M64 19.5C64 22.5386 61.5365 25 58.5 25C55.4636 25 53 22.5386 53 19.5C53 16.4614 55.4636 14 58.5 14C61.5365 14 64 16.4614 64 19.5Z" fill="#28CA42" stroke="#1DAC2C" />
	<path d="M630.5 8H270.5C268.567 8 267 9.567 267 11.5V27.5C267 29.433 268.567 31 270.5 31H630.5C632.433 31 634 29.433 634 27.5V11.5C634 9.567 632.433 8 630.5 8Z" fill="#1F2933" />
	<path d="M901 37H0V38H901V37Z" fill="#616E7C" />
</svg>
